<?xml version="1.0" encoding="UTF-8" standalone="no"?>
<!-- Created with Inkscape (http://www.inkscape.org/) -->

<svg
   xmlns:dc="http://purl.org/dc/elements/1.1/"
   xmlns:cc="http://creativecommons.org/ns#"
   xmlns:rdf="http://www.w3.org/1999/02/22-rdf-syntax-ns#"
   xmlns:svg="http://www.w3.org/2000/svg"
   xmlns="http://www.w3.org/2000/svg"
   xmlns:xlink="http://www.w3.org/1999/xlink"
   xmlns:sodipodi="http://sodipodi.sourceforge.net/DTD/sodipodi-0.dtd"
   xmlns:inkscape="http://www.inkscape.org/namespaces/inkscape"
   id="svg5082"
   version="1.1"
   inkscape:version="0.48.3.1 r9886"
   width="300"
   height="245"
   sodipodi:docname="pipeline.svg">
  <metadata
     id="metadata5088">
    <rdf:RDF>
      <cc:Work
         rdf:about="">
        <dc:format>image/svg+xml</dc:format>
        <dc:type
           rdf:resource="http://purl.org/dc/dcmitype/StillImage" />
        <dc:title />
      </cc:Work>
    </rdf:RDF>
  </metadata>
  <defs
     id="defs5086" />
  <sodipodi:namedview
     pagecolor="#ffffff"
     bordercolor="#666666"
     borderopacity="1"
     objecttolerance="10"
     gridtolerance="10"
     guidetolerance="10"
     inkscape:pageopacity="0"
     inkscape:pageshadow="2"
     inkscape:window-width="1440"
     inkscape:window-height="900"
     id="namedview5084"
     showgrid="false"
     inkscape:object-paths="false"
     inkscape:object-nodes="true"
     inkscape:zoom="1.668772"
     inkscape:cx="185.5253"
     inkscape:cy="65.469243"
     inkscape:window-x="0"
     inkscape:window-y="0"
     inkscape:window-maximized="0"
     inkscape:current-layer="svg5082"
     inkscape:snap-nodes="false" />
  <path
     id="path5772"
     transform="matrix(1,0,0,2.2219637,-0.21186441,-225.05395)"
     style="color:#000000;fill:none;stroke:#000000;stroke-width:1.34171879;stroke-linecap:butt;stroke-linejoin:miter;stroke-miterlimit:4;stroke-opacity:1;stroke-dashoffset:0;marker:none;visibility:visible;display:inline;overflow:visible;enable-background:accumulate"
     d="M 304.52816,177.54308 L 202.0576,177.54308 C 186.13634,177.41873 177.43872,185.32763 177.37335,192.40084 L 175.57562,192.40084 L 175.57562,154.98125 C 175.57562,154.98125 144.9654,154.71156 144.36616,154.98125 C 143.76691,155.25095 144.0678,192.88136 144.0678,192.88136 C 144.0678,198.49782 153.2627,207.09224 176.3013,206.82255 C 198.88282,206.95045 209.46563,198.97286 209.54813,192.60311 L 302.13119,192.60311"
     inkscape:connector-curvature="0"
     sodipodi:nodetypes="cccccscccc" />
  <path
     style="color:#000000;fill:none;stroke:#000000;stroke-width:2;stroke-linecap:butt;stroke-linejoin:miter;stroke-miterlimit:4;stroke-opacity:1;stroke-dasharray:none;stroke-dashoffset:0;marker:none;visibility:visible;display:inline;overflow:visible;enable-background:accumulate"
     d="M 48.810003,140.38289 L 134.50176,57.912066"
     id="path5653"
     inkscape:connector-curvature="0" />
  <path
     style="color:#000000;fill:none;stroke:#000000;stroke-width:2;stroke-linecap:butt;stroke-linejoin:miter;stroke-miterlimit:4;stroke-opacity:1;stroke-dasharray:none;stroke-dashoffset:0;marker:none;visibility:visible;display:inline;overflow:visible;enable-background:accumulate"
     d="M 92.982127,140.80662 L 160.09735,76.612707"
     id="path5655"
     inkscape:connector-curvature="0" />
  <path
     style="color:#000000;fill:#ffffff;fill-opacity:1;fill-rule:nonzero;stroke:#000000;stroke-width:2;stroke-linecap:butt;stroke-linejoin:miter;stroke-miterlimit:4;stroke-opacity:1;stroke-dasharray:none;stroke-dashoffset:0;marker:none;visibility:visible;display:inline;overflow:visible;enable-background:accumulate"
     d="M 135.53649,56.491655 C 138.73491,57.196147 142.62403,57.437348 144.76088,59.310809 C 145.59737,60.283062 146.33642,61.307038 147.66115,62.064367 C 149.93257,63.547149 152.60991,64.803898 154.40874,66.554867 C 157.00693,68.429791 160.67479,70.02898 161.45142,72.635828 C 161.95085,73.99869 162.03045,75.694482 160.07053,76.627125 C 157.6423,77.899849 153.65986,77.542484 151.80536,75.943956 C 148.28641,73.913404 146.07685,71.154784 142.58955,69.105504 C 141.71113,66.616533 136.77926,65.696845 136.26972,63.099716 C 135.79883,61.173758 133.66042,59.300957 134.74428,57.306899 C 134.93223,57.008984 135.20536,56.733799 135.53649,56.491655 z"
     id="path5671"
     inkscape:connector-curvature="0" />
  <path
     style="color:#000000;fill:#ffffff;fill-opacity:1;fill-rule:nonzero;stroke:#000000;stroke-width:2;stroke-linecap:butt;stroke-linejoin:miter;stroke-miterlimit:4;stroke-opacity:1;stroke-dasharray:none;stroke-dashoffset:0;marker:none;visibility:visible;display:inline;overflow:visible;enable-background:accumulate"
     d="M 303.89331,169.40486 C 306.66904,171.10536 304.41863,177.31889 306.09995,180.56103 C 306.3733,184.5378 303.51468,186.17004 303.5255,190.01019 C 302.73888,193.85174 304.2551,198.01799 302.9682,201.63302 C 300.93919,205.61279 299.42835,199.39942 298.5093,196.91502 C 297.44603,194.08387 297.61843,190.23185 298.4498,187.28451 C 298.99644,183.3038 298.80019,178.82645 300.19479,175.14797 C 300.92889,172.56108 302.31264,170.57782 303.89331,169.40486 z"
     id="path5680"
     inkscape:connector-curvature="0" />
  <rect
     style="color:#000000;fill:#ffffff;fill-opacity:1;stroke:#000000;stroke-width:2;stroke-linecap:butt;stroke-linejoin:miter;stroke-miterlimit:4;stroke-opacity:1;stroke-dasharray:none;stroke-dashoffset:0;marker:none;visibility:visible;display:inline;overflow:visible;enable-background:accumulate"
     id="rect5630"
     width="5.2966118"
     height="37.644821"
     x="-5.5817981"
     y="131.31818"
     ry="0.5"
     rx="0.5"
     transform="matrix(0.70721142,-0.70700213,0.70700213,0.70721142,0,0)" />
  <rect
     transform="matrix(0.70721142,-0.70700213,0.70700213,0.70721142,0,0)"
     rx="0.5"
     ry="0.5"
     y="131.10112"
     x="-16.433077"
     height="37.944576"
     width="5.2966118"
     id="rect5632"
     style="color:#000000;fill:#ffffff;fill-opacity:1;stroke:#000000;stroke-width:2;stroke-linecap:butt;stroke-linejoin:miter;stroke-miterlimit:4;stroke-opacity:1;stroke-dasharray:none;stroke-dashoffset:0;marker:none;visibility:visible;display:inline;overflow:visible;enable-background:accumulate" />
  <rect
     style="color:#000000;fill:#ffffff;fill-opacity:1;stroke:#000000;stroke-width:2;stroke-linecap:butt;stroke-linejoin:miter;stroke-miterlimit:4;stroke-opacity:1;stroke-dasharray:none;stroke-dashoffset:0;marker:none;visibility:visible;display:inline;overflow:visible;enable-background:accumulate"
     id="rect5687"
     width="3.3490758"
     height="15.510315"
     x="-119.09666"
     y="151.57703"
     ry="0.5"
     rx="0.5"
     transform="matrix(0,-1,1,0,0,0)" />
  <path
     style="color:#000000;fill:#ffffff;fill-opacity:1;fill-rule:nonzero;stroke:#000000;stroke-width:2;stroke-linecap:butt;stroke-linejoin:miter;stroke-miterlimit:4;stroke-opacity:1;stroke-dasharray:none;stroke-dashoffset:0;marker:none;visibility:visible;display:inline;overflow:visible;enable-background:accumulate"
     d="M 8.689024,171.46549 L 144.71719,171.46549 C 144.71719,171.46549 154.49877,165.67718 154.6047,155.03071 C 154.39284,144.98405 143.59361,139.76229 143.59361,139.76229 L 14.194915,139.76229"
     id="path5634"
     inkscape:connector-curvature="0"
     sodipodi:nodetypes="ccccc" />
  <path
     style="color:#000000;fill:#ffffff;fill-opacity:1;fill-rule:nonzero;stroke:#000000;stroke-width:2;stroke-linecap:butt;stroke-linejoin:miter;stroke-miterlimit:4;stroke-opacity:1;stroke-dasharray:none;stroke-dashoffset:0;marker:none;visibility:visible;display:inline;overflow:visible;enable-background:accumulate"
     d="M 14.194915,139.76229 C 10.948478,140.04848 12.025168,144.8117 10.178432,147.42731 C 9.1082165,150.94901 8.8438455,154.86194 8.2529296,158.58555 C 8.3426286,161.57275 7.6593859,164.3714 7.3718027,167.30242 C 6.0066442,170.3324 8.3389871,173.62351 10.146391,170.48379 C 11.737525,167.81267 12.829514,164.66192 14.290384,161.85633 C 15.334801,159.03587 15.550665,155.54326 15.31806,152.40201 C 13.748694,149.73666 15.145118,147.52446 16.261311,145.29762 C 16.212556,143.27295 15.516031,140.78688 14.194915,139.76229 z"
     id="path5665"
     inkscape:connector-curvature="0" />
  <rect
     style="color:#000000;fill:#ffffff;fill-opacity:1;fill-rule:nonzero;stroke:#000000;stroke-width:2;stroke-linecap:butt;stroke-linejoin:miter;stroke-miterlimit:4;stroke-opacity:1;stroke-dasharray:none;stroke-dashoffset:0;marker:none;visibility:visible;display:inline;overflow:visible;enable-background:accumulate"
     id="rect5092"
     width="5.5084743"
     height="41.836086"
     x="32.944916"
     y="134.90173"
     ry="0.70776463"
     rx="0.5" />
  <rect
     rx="0.5"
     ry="0.70776463"
     y="135.05168"
     x="33.05085"
     height="41.836086"
     width="5.2966118"
     id="rect5094"
     style="color:#000000;fill:#ffffff;fill-opacity:1;fill-rule:nonzero;stroke:#000000;stroke-width:2;stroke-linecap:butt;stroke-linejoin:miter;stroke-miterlimit:4;stroke-opacity:1;stroke-dasharray:none;stroke-dashoffset:0;marker:none;visibility:visible;display:inline;overflow:visible;enable-background:accumulate" />
  <rect
     style="color:#000000;fill:#ffffff;fill-opacity:1;fill-rule:nonzero;stroke:#000000;stroke-width:2;stroke-linecap:butt;stroke-linejoin:miter;stroke-miterlimit:4;stroke-opacity:1;stroke-dasharray:none;stroke-dashoffset:0;marker:none;visibility:visible;display:inline;overflow:visible;enable-background:accumulate"
     id="rect5608"
     width="5.2966118"
     height="41.836086"
     x="46.080509"
     y="135.05168"
     ry="0.70776463"
     rx="0.5" />
  <rect
     rx="0.5"
     ry="0.70776463"
     y="135.05168"
     x="96.292374"
     height="41.836086"
     width="5.2966118"
     id="rect5610"
     style="color:#000000;fill:#ffffff;fill-opacity:1;fill-rule:nonzero;stroke:#000000;stroke-width:2;stroke-linecap:butt;stroke-linejoin:miter;stroke-miterlimit:4;stroke-opacity:1;stroke-dasharray:none;stroke-dashoffset:0;marker:none;visibility:visible;display:inline;overflow:visible;enable-background:accumulate" />
  <rect
     style="color:#000000;fill:#ffffff;fill-opacity:1;fill-rule:nonzero;stroke:#000000;stroke-width:2;stroke-linecap:butt;stroke-linejoin:miter;stroke-miterlimit:4;stroke-opacity:1;stroke-dasharray:none;stroke-dashoffset:0;marker:none;visibility:visible;display:inline;overflow:visible;enable-background:accumulate"
     id="rect5612"
     width="5.2966118"
     height="41.836086"
     x="105.40254"
     y="135.05168"
     ry="0.70776463"
     rx="0.5" />
  <rect
     style="color:#000000;fill:#ffffff;fill-opacity:1;fill-rule:nonzero;stroke:#000000;stroke-width:2;stroke-linecap:butt;stroke-linejoin:miter;stroke-miterlimit:4;stroke-opacity:1;stroke-dasharray:none;stroke-dashoffset:0;marker:none;visibility:visible;display:inline;overflow:visible;enable-background:accumulate"
     id="rect5614"
     width="5.2966118"
     height="41.836086"
     x="122.33814"
     y="135.05168"
     ry="0.70776463"
     rx="0.5" />
  <rect
     rx="0.5"
     ry="0.70776463"
     y="135.05168"
     x="131.44833"
     height="41.836086"
     width="5.2966118"
     id="rect5616"
     style="color:#000000;fill:#ffffff;fill-opacity:1;fill-rule:nonzero;stroke:#000000;stroke-width:2;stroke-linecap:butt;stroke-linejoin:miter;stroke-miterlimit:4;stroke-opacity:1;stroke-dasharray:none;stroke-dashoffset:0;marker:none;visibility:visible;display:inline;overflow:visible;enable-background:accumulate" />
  <rect
     style="color:#000000;fill:#ffffff;fill-opacity:1;stroke:#000000;stroke-width:2;stroke-linecap:butt;stroke-linejoin:miter;stroke-miterlimit:4;stroke-opacity:1;stroke-dasharray:none;stroke-dashoffset:0;marker:none;visibility:visible;display:inline;overflow:visible;enable-background:accumulate;fill-rule:nonzero"
     id="rect5618"
     width="5.2966118"
     height="40.64909"
     x="214.17206"
     y="165.78502"
     ry="0.68768352"
     rx="0.5" />
  <rect
     rx="0.5"
     ry="0.68768352"
     y="165.78502"
     x="223.90588"
     height="40.64909"
     width="5.2966118"
     id="rect5620"
     style="color:#000000;fill:#ffffff;fill-opacity:1;stroke:#000000;stroke-width:2;stroke-linecap:butt;stroke-linejoin:miter;stroke-miterlimit:4;stroke-opacity:1;stroke-dasharray:none;stroke-dashoffset:0;marker:none;visibility:visible;display:inline;overflow:visible;enable-background:accumulate;fill-rule:nonzero" />
  <rect
     style="color:#000000;fill:#ffffff;fill-opacity:1;stroke:#000000;stroke-width:2;stroke-linecap:butt;stroke-linejoin:miter;stroke-miterlimit:4;stroke-opacity:1;stroke-dasharray:none;stroke-dashoffset:0;marker:none;visibility:visible;display:inline;overflow:visible;enable-background:accumulate;fill-rule:nonzero"
     id="rect5622"
     width="5.2966118"
     height="36.838097"
     x="-180.14777"
     y="140.91313"
     ry="0.62321079"
     rx="0.5"
     transform="matrix(0,-1,1,0,0,0)" />
  <rect
     transform="matrix(0,-1,1,0,0,0)"
     rx="0.5"
     ry="0.62321079"
     y="140.91313"
     x="-189.51094"
     height="36.838097"
     width="5.2966118"
     id="rect5624"
     style="color:#000000;fill:#ffffff;fill-opacity:1;stroke:#000000;stroke-width:2;stroke-linecap:butt;stroke-linejoin:miter;stroke-miterlimit:4;stroke-opacity:1;stroke-dasharray:none;stroke-dashoffset:0;marker:none;visibility:visible;display:inline;overflow:visible;enable-background:accumulate;fill-rule:nonzero" />
  <rect
     transform="matrix(0,-1,1,0,0,0)"
     rx="0.5"
     ry="0.62321079"
     y="140.91313"
     x="-128.02913"
     height="36.838097"
     width="5.2966118"
     id="rect5626"
     style="color:#000000;fill:#ffffff;fill-opacity:1;stroke:#000000;stroke-width:2;stroke-linecap:butt;stroke-linejoin:miter;stroke-miterlimit:4;stroke-opacity:1;stroke-dasharray:none;stroke-dashoffset:0;marker:none;visibility:visible;display:inline;overflow:visible;enable-background:accumulate;fill-rule:nonzero" />
  <rect
     style="color:#000000;fill:#ffffff;fill-opacity:1;stroke:#000000;stroke-width:2;stroke-linecap:butt;stroke-linejoin:miter;stroke-miterlimit:4;stroke-opacity:1;stroke-dasharray:none;stroke-dashoffset:0;marker:none;visibility:visible;display:inline;overflow:visible;enable-background:accumulate;fill-rule:nonzero"
     id="rect5628"
     width="5.2966118"
     height="36.838097"
     x="-136.22705"
     y="140.91313"
     ry="0.62321079"
     rx="0.5"
     transform="matrix(0,-1,1,0,0,0)" />
  <g
     transform="scale(1.25,1.25)"
     id="g3742">
    <use
       height="70"
       width="192"
       id="use3504"
       y="7.7179999"
       x="1.6679699"
       xlink:href="#glyph0-0"
       style="fill:#000000;fill-opacity:1" />
    <use
       height="70"
       width="192"
       id="use3508"
       y="7.7179999"
       x="9.6781301"
       xlink:href="#glyph1-0"
       style="fill:#000000;fill-opacity:1" />
    <use
       height="70"
       width="192"
       id="use3512"
       y="7.7179999"
       x="20.190229"
       xlink:href="#glyph0-1"
       style="fill:#000000;fill-opacity:1" />
    <use
       height="70"
       width="192"
       id="use3516"
       y="7.7179999"
       x="26.139059"
       xlink:href="#glyph1-1"
       style="fill:#000000;fill-opacity:1" />
    <use
       height="70"
       width="192"
       id="use3520"
       y="7.7179999"
       x="30.00898"
       xlink:href="#glyph0-2"
       style="fill:#000000;fill-opacity:1" />
    <use
       height="70"
       width="192"
       id="use3524"
       y="7.7179999"
       x="35.70586"
       xlink:href="#glyph1-2"
       style="fill:#000000;fill-opacity:1" />
  </g>
</svg>
